<svg version="1.1" id="Layer_1" xmlns="http://www.w3.org/2000/svg" xmlns:xlink="http://www.w3.org/1999/xlink" x="0px" y="0px"
	 width="100%" viewBox="0 0 180 180" enable-background="new 0 0 180 180" xml:space="preserve">
<path fill="#000000" opacity="1.000000" stroke="none" 
	d="
M102.000000,181.000000 
	C68.000000,181.000000 34.500004,181.000000 1.000005,181.000000 
	C1.000003,121.000008 1.000003,61.000011 1.000001,1.000013 
	C60.999989,1.000008 120.999977,1.000008 180.999969,1.000004 
	C180.999985,60.999985 180.999985,120.999969 181.000000,180.999969 
	C154.833328,181.000000 128.666672,181.000000 102.000000,181.000000 
M63.248688,155.310013 
	C63.800999,156.876816 64.177452,158.538803 64.958405,159.981873 
	C65.646828,161.253937 66.787018,162.281509 67.727730,163.417053 
	C68.834053,162.243103 70.450058,161.257019 70.963356,159.864471 
	C74.117577,151.307159 77.012856,142.654633 80.013077,134.040314 
	C83.468613,124.118698 86.943588,114.203842 90.841774,103.051094 
	C91.901505,105.775108 92.518456,107.225060 93.035149,108.709892 
	C98.978661,125.789688 104.862778,142.890503 110.922432,159.928894 
	C111.411713,161.304642 113.078255,162.261688 114.197731,163.413300 
	C115.127075,162.251205 116.486412,161.229584 116.919022,159.905243 
	C121.090652,147.134750 125.101463,134.311768 129.168381,121.506996 
	C131.869263,113.003189 134.586655,104.504639 137.390015,95.710876 
	C134.312927,94.942627 132.740265,95.085640 131.812500,98.281349 
	C128.714447,108.952499 125.263618,119.521568 121.921051,130.121277 
	C119.398880,138.119370 116.835487,146.104462 113.900047,155.321106 
	C106.991974,135.611328 100.589233,117.219391 94.032928,98.882362 
	C93.531013,97.478577 91.944054,96.462746 90.861435,95.266594 
	C89.793457,96.507599 88.243416,97.576958 87.731079,99.015808 
	C81.718407,115.902092 75.864708,132.844940 69.957466,149.768829 
	C69.464752,151.180435 68.888046,152.562698 67.868599,155.209351 
	C61.613583,135.332092 55.771004,117.015221 50.142410,98.632835 
	C49.205242,95.572136 48.017723,94.525742 44.577015,96.038948 
	C50.796978,115.677757 56.949043,135.102188 63.248688,155.310013 
M93.906639,57.499477 
	C93.906639,46.077286 93.906639,34.655090 93.906639,23.004356 
	C101.300697,23.004356 108.109253,23.004580 114.917816,23.004280 
	C119.749504,23.004068 124.591614,23.174526 129.405518,22.881573 
	C130.603119,22.808695 131.709518,21.237131 132.857849,20.354422 
	C131.777924,19.569044 130.772003,18.631117 129.589401,18.057344 
	C128.914749,17.730007 127.951958,17.995762 127.118912,17.995758 
	C102.960464,17.995621 78.802025,17.995632 54.643581,17.995701 
	C53.810532,17.995703 52.819996,17.707991 52.177956,18.058411 
	C50.927620,18.740837 49.872543,19.781017 48.736595,20.673031 
	C49.823463,21.449600 50.833855,22.713600 52.013523,22.898678 
	C54.290108,23.255852 56.662273,23.004240 58.994812,23.004280 
	C68.924202,23.004454 78.853592,23.004354 88.708694,23.004354 
	C88.708694,40.977459 88.708694,58.378269 88.708694,75.995651 
	C86.782532,75.995651 85.136620,75.995644 83.490707,75.995651 
	C73.327499,75.995682 63.162552,75.904617 53.003075,76.099228 
	C51.567516,76.126724 50.158634,77.547127 48.737408,78.322815 
	C50.204891,79.216637 51.669220,80.115746 53.145622,80.994583 
	C53.268650,81.067810 53.473076,81.004326 53.639687,81.004326 
	C78.464569,81.004333 103.289452,81.004478 128.114334,81.003647 
	C128.780624,81.003624 129.592102,81.233704 130.082916,80.937424 
	C131.098053,80.324608 131.942535,79.429047 132.857193,78.649765 
	C131.877106,77.766350 130.997406,76.312576 129.895966,76.118752 
	C127.633270,75.720589 125.251869,75.995934 122.919334,75.995834 
	C113.317352,75.995415 103.715370,75.995651 93.906639,75.995651 
	C93.906639,69.786003 93.906639,64.142471 93.906639,57.499477 
z"/>
<path fill="#EDEDED" opacity="1.000000" stroke="none" 
	d="
M63.174896,154.918320 
	C56.949043,135.102188 50.796978,115.677757 44.577015,96.038948 
	C48.017723,94.525742 49.205242,95.572136 50.142410,98.632835 
	C55.771004,117.015221 61.613583,135.332092 67.868599,155.209351 
	C68.888046,152.562698 69.464752,151.180435 69.957466,149.768829 
	C75.864708,132.844940 81.718407,115.902092 87.731079,99.015808 
	C88.243416,97.576958 89.793457,96.507599 90.861435,95.266594 
	C91.944054,96.462746 93.531013,97.478577 94.032928,98.882362 
	C100.589233,117.219391 106.991974,135.611328 113.900047,155.321106 
	C116.835487,146.104462 119.398880,138.119370 121.921051,130.121277 
	C125.263618,119.521568 128.714447,108.952499 131.812500,98.281349 
	C132.740265,95.085640 134.312927,94.942627 137.390015,95.710876 
	C134.586655,104.504639 131.869263,113.003189 129.168381,121.506996 
	C125.101463,134.311768 121.090652,147.134750 116.919022,159.905243 
	C116.486412,161.229584 115.127075,162.251205 114.197739,163.413300 
	C113.078255,162.261688 111.411713,161.304642 110.922432,159.928894 
	C104.862778,142.890503 98.978661,125.789688 93.035149,108.709892 
	C92.518456,107.225060 91.901505,105.775108 90.841774,103.051094 
	C86.943588,114.203842 83.468613,124.118698 80.013077,134.040314 
	C77.012856,142.654633 74.117577,151.307159 70.963356,159.864471 
	C70.450058,161.257019 68.834053,162.243103 67.727722,163.417053 
	C66.787018,162.281509 65.646828,161.253937 64.958405,159.981873 
	C64.177452,158.538803 63.800999,156.876816 63.174896,154.918320 
z"/>
<path fill="#FCFCFC" opacity="1.000000" stroke="none" 
	d="
M93.906639,57.999207 
	C93.906639,64.142471 93.906639,69.786003 93.906639,75.995651 
	C103.715370,75.995651 113.317352,75.995415 122.919334,75.995834 
	C125.251869,75.995934 127.633270,75.720589 129.895966,76.118752 
	C130.997406,76.312576 131.877106,77.766350 132.857193,78.649765 
	C131.942535,79.429047 131.098053,80.324608 130.082916,80.937424 
	C129.592102,81.233704 128.780624,81.003624 128.114334,81.003647 
	C103.289452,81.004478 78.464569,81.004333 53.639687,81.004326 
	C53.473076,81.004326 53.268650,81.067810 53.145622,80.994583 
	C51.669220,80.115746 50.204891,79.216637 48.737408,78.322815 
	C50.158634,77.547127 51.567516,76.126724 53.003075,76.099228 
	C63.162552,75.904617 73.327499,75.995682 83.490707,75.995651 
	C85.136620,75.995644 86.782532,75.995651 88.708694,75.995651 
	C88.708694,58.378269 88.708694,40.977459 88.708694,23.004354 
	C78.853592,23.004354 68.924202,23.004454 58.994812,23.004280 
	C56.662273,23.004240 54.290108,23.255852 52.013523,22.898678 
	C50.833855,22.713600 49.823463,21.449600 48.736595,20.673031 
	C49.872543,19.781017 50.927620,18.740837 52.177956,18.058411 
	C52.819996,17.707991 53.810532,17.995703 54.643581,17.995701 
	C78.802025,17.995632 102.960464,17.995621 127.118912,17.995758 
	C127.951958,17.995762 128.914749,17.730007 129.589401,18.057344 
	C130.772003,18.631117 131.777924,19.569044 132.857849,20.354424 
	C131.709518,21.237131 130.603119,22.808695 129.405518,22.881573 
	C124.591614,23.174526 119.749504,23.004068 114.917816,23.004280 
	C108.109253,23.004580 101.300697,23.004356 93.906639,23.004356 
	C93.906639,34.655090 93.906639,46.077286 93.906639,57.999207 
z"/>
</svg>